<svg id="icon_xiezhu" xmlns="http://www.w3.org/2000/svg" viewBox="0 0 48 48">
  <defs>
    <style>
      .cls-1 {
        fill: #f0b831;
      }
    </style>
  </defs>
  <g id="组_66" data-name="组 66">
    <path id="路径_47" data-name="路径 47" class="cls-1" d="M22.862,0A11.427,11.427,0,0,1,34.286,11.434v.721a11.432,11.432,0,0,1-22.862,0v-.721A11.442,11.442,0,0,1,22.862,0ZM33.706,28.886a36.644,36.644,0,0,0-10.844-1.662q-10.265,0-20.536,6.216A4.813,4.813,0,0,0,0,37.563V45.73H30.518a10.76,10.76,0,0,1,3.188-16.844Zm0,0"/>
  </g>
  <path id="路径_48" data-name="路径 48" class="cls-1" d="M418.181,408.4a9.56,9.56,0,1,0,9.558,9.56A9.568,9.568,0,0,0,418.181,408.4Zm5.111,10.586h-4.086v4.094h-2.05v-4.087H413.07v-2.051h4.086v-4.087h2.05v4.087h4.086Z" transform="translate(-379.738 -379.521)"/>
</svg>
