<svg xmlns="http://www.w3.org/2000/svg" xmlns:xlink="http://www.w3.org/1999/xlink" viewBox="0 0 48 48">
  <defs>
    <style>
      .cls-1 {
        fill: url(#linear-gradient);
      }

      .cls-2 {
        fill: none;
      }
    </style>
    <linearGradient id="linear-gradient" y1="0.586" x2="1" y2="0.576" gradientUnits="objectBoundingBox">
      <stop offset="0" stop-color="#7fd69d"/>
      <stop offset="1" stop-color="#50b674"/>
    </linearGradient>
  </defs>
  <g id="icon_video" transform="translate(0 7)">
    <g id="组_27" data-name="组 27" transform="translate(0)">
      <path id="路径_12" data-name="路径 12" class="cls-1" d="M33.909,10.554a1.977,1.977,0,0,1-.477.879c-.318.413-.66.905-1.018,1.476A16.742,16.742,0,0,0,31.4,14.755a4.722,4.722,0,0,0-.477,2.048,4.564,4.564,0,0,0,.477,2.03,14.217,14.217,0,0,0,1.018,1.775,12.457,12.457,0,0,0,1.018,1.327c.318.352.477.571.477.677v5.246a4.258,4.258,0,0,1-.565,1.925,10.09,10.09,0,0,1-1.4,2.021,8.1,8.1,0,0,1-1.854,1.573A3.653,3.653,0,0,1,28.165,34H5.657a5.281,5.281,0,0,1-2.244-.475A5.5,5.5,0,0,1,1.623,32.2,6.068,6.068,0,0,1,.43,30.2a7.071,7.071,0,0,1-.43-2.5V6.151A5.833,5.833,0,0,1,.406,4.078,6.849,6.849,0,0,1,1.559,2.1,6.926,6.926,0,0,1,3.326.6,4.388,4.388,0,0,1,5.569,0h22.5a5.542,5.542,0,0,1,2.283.475,5.767,5.767,0,0,1,1.854,1.3,6.112,6.112,0,0,1,1.249,1.977A6.606,6.606,0,0,1,33.909,6.2Zm14.083-4.7V28.71a3.658,3.658,0,0,1-.525,1.951,1.707,1.707,0,0,1-1.559.852,2.123,2.123,0,0,1-.931-.3,10.3,10.3,0,0,1-1.13-.7c-.382-.264-.732-.536-1.066-.8a6.128,6.128,0,0,1-.724-.65q-.585-.554-1.79-1.9a37.39,37.39,0,0,1-2.427-3.049,28.848,28.848,0,0,1-2.148-3.5,7.279,7.279,0,0,1-.923-3.3,7.674,7.674,0,0,1,.995-3.427,26.579,26.579,0,0,1,2.4-3.779A37.638,37.638,0,0,1,41.11,6.679,24.079,24.079,0,0,1,43.7,4.306c.271-.2.636-.439,1.106-.729a2.5,2.5,0,0,1,1.249-.422,1.575,1.575,0,0,1,1.583.747A4.28,4.28,0,0,1,48,5.756v.1Zm0,0" transform="translate(0)"/>
    </g>
    <rect id="矩形_110" data-name="矩形 110" class="cls-2" width="48" height="48" transform="translate(0 -7)"/>
  </g>
</svg>
