<svg id="home_process" xmlns="http://www.w3.org/2000/svg" viewBox="0 0 100 100">
  <defs>
    <style>
      .cls-1 {
        fill: #98b2fb;
      }
    </style>
  </defs>
  <g id="组_36" data-name="组 36">
    <path id="路径_28" data-name="路径 28" class="cls-1" d="M69.263,76.44a14.27,14.27,0,1,1,14.27-14.27,14.264,14.264,0,0,1-14.27,14.27Zm-46.13-25a3.333,3.333,0,1,1,0-6.665H52.856a3.333,3.333,0,1,1,0,6.665ZM46.423,66.467H23.132a3.333,3.333,0,1,1,0-6.665H46.423a3.333,3.333,0,0,1,0,6.665ZM23.132,30.347H74.316a3.333,3.333,0,1,1,0,6.665H23.132a3.333,3.333,0,1,1,0-6.665ZM50,0a50,50,0,1,0,50,50A50,50,0,0,0,50,0ZM77.356,61.755H69.3V55.92a2.222,2.222,0,0,0-4.443,0v8.057A2.214,2.214,0,0,0,67.078,66.2H77.356a2.222,2.222,0,1,0,0-4.443"/>
  </g>
</svg>
