<svg xmlns="http://www.w3.org/2000/svg" xmlns:xlink="http://www.w3.org/1999/xlink" viewBox="0 0 100 100">
  <defs>
    <style>
      .cls-1 {
        clip-path: url(#clip-path);
      }

      .cls-2 {
        fill: #37affa;
      }

      .cls-3 {
        fill: #b9e8ff;
      }

      .cls-4 {
        fill: #fff;
      }

      .cls-5 {
        fill: none;
      }
    </style>
    <clipPath id="clip-path">
      <rect id="矩形_93" data-name="矩形 93" width="100" height="87.573"/>
    </clipPath>
  </defs>
  <g id="home_cam" transform="translate(-0.1 6)">
    <g id="组_31" data-name="组 31" transform="translate(0.1)">
      <g id="组_29" data-name="组 29" class="cls-1" transform="translate(0)">
        <path id="路径_14" data-name="路径 14" class="cls-2" d="M87.408,87.593H12.487A12.489,12.489,0,0,1,0,75.106V25.159A12.489,12.489,0,0,1,12.487,12.672H23.656a3.061,3.061,0,0,0,2.965-2.306L27.5,6.758C28.432,3.015,32.909.2,37.58.2H62.914C67.57.2,72.047,3.015,72.99,6.758l.883,3.608a3.032,3.032,0,0,0,2.965,2.306h10.57A12.489,12.489,0,0,1,99.9,25.159V75.106A12.489,12.489,0,0,1,87.408,87.593Zm0,0" transform="translate(-0.015 -0.17)"/>
      </g>
      <g id="组_30" data-name="组 30" class="cls-1" transform="translate(0)">
        <path id="路径_15" data-name="路径 15" class="cls-2" d="M0,137.864v8.055a12.489,12.489,0,0,0,12.487,12.487h2.366A51.65,51.65,0,0,1,0,137.864Zm99.9,8.07V95.987A12.489,12.489,0,0,0,87.408,83.5H85.956a51.753,51.753,0,0,1-4.582,74.921h6.034A12.489,12.489,0,0,0,99.9,145.934ZM0,95.987V99.7A51.792,51.792,0,0,1,10.031,83.74,12.485,12.485,0,0,0,0,95.987Zm0,0" transform="translate(-0.015 -70.998)"/>
      </g>
    </g>
    <path id="路径_16" data-name="路径 16" class="cls-3" d="M203.093,159.362a22.893,22.893,0,1,0,22.893,22.893,22.892,22.892,0,0,0-22.893-22.893Zm33.3-4.162h-4.162a4.162,4.162,0,0,0,0,8.325h4.162a4.162,4.162,0,0,0,0-8.325Zm0,0" transform="translate(-153.135 -131.963)"/>
    <path id="路径_17" data-name="路径 17" class="cls-4" d="M37.656,132.01a2.166,2.166,0,0,1-2.156-2.156v-1.946a9.221,9.221,0,0,1,9.208-9.208h4.626a2.156,2.156,0,1,1,0,4.312H44.708a4.9,4.9,0,0,0-4.9,4.9v1.946a2.157,2.157,0,0,1-2.156,2.156Zm0,8.34a2.166,2.166,0,0,1-2.156-2.156v-1.258a2.156,2.156,0,1,1,4.312,0v1.258a2.157,2.157,0,0,1-2.156,2.156Zm0,0" transform="translate(-30.1 -100.928)"/>
    <rect id="矩形_108" data-name="矩形 108" class="cls-5" width="100" height="100" transform="translate(0.1 -6)"/>
  </g>
</svg>
